G04 #@! TF.GenerationSoftware,KiCad,Pcbnew,(5.1.4)-1*
G04 #@! TF.CreationDate,2019-10-22T14:30:37-04:00*
G04 #@! TF.ProjectId,MerlinGame,4d65726c-696e-4476-916d-652e6b696361,A*
G04 #@! TF.SameCoordinates,Original*
G04 #@! TF.FileFunction,Legend,Top*
G04 #@! TF.FilePolarity,Positive*
%FSLAX46Y46*%
G04 Gerber Fmt 4.6, Leading zero omitted, Abs format (unit mm)*
G04 Created by KiCad (PCBNEW (5.1.4)-1) date 2019-10-22 14:30:37*
%MOMM*%
%LPD*%
G04 APERTURE LIST*
%ADD10C,0.150000*%
%ADD11C,0.300000*%
%ADD12C,0.120000*%
G04 APERTURE END LIST*
D10*
X59745952Y-55904761D02*
X59888809Y-55952380D01*
X60126904Y-55952380D01*
X60222142Y-55904761D01*
X60269761Y-55857142D01*
X60317380Y-55761904D01*
X60317380Y-55666666D01*
X60269761Y-55571428D01*
X60222142Y-55523809D01*
X60126904Y-55476190D01*
X59936428Y-55428571D01*
X59841190Y-55380952D01*
X59793571Y-55333333D01*
X59745952Y-55238095D01*
X59745952Y-55142857D01*
X59793571Y-55047619D01*
X59841190Y-55000000D01*
X59936428Y-54952380D01*
X60174523Y-54952380D01*
X60317380Y-55000000D01*
X60745952Y-55952380D02*
X60745952Y-54952380D01*
X61126904Y-54952380D01*
X61222142Y-55000000D01*
X61269761Y-55047619D01*
X61317380Y-55142857D01*
X61317380Y-55285714D01*
X61269761Y-55380952D01*
X61222142Y-55428571D01*
X61126904Y-55476190D01*
X60745952Y-55476190D01*
X61745952Y-55428571D02*
X62079285Y-55428571D01*
X62222142Y-55952380D02*
X61745952Y-55952380D01*
X61745952Y-54952380D01*
X62222142Y-54952380D01*
X62603095Y-55666666D02*
X63079285Y-55666666D01*
X62507857Y-55952380D02*
X62841190Y-54952380D01*
X63174523Y-55952380D01*
X63507857Y-55952380D02*
X63507857Y-54952380D01*
X64079285Y-55952380D02*
X63650714Y-55380952D01*
X64079285Y-54952380D02*
X63507857Y-55523809D01*
X64507857Y-55428571D02*
X64841190Y-55428571D01*
X64984047Y-55952380D02*
X64507857Y-55952380D01*
X64507857Y-54952380D01*
X64984047Y-54952380D01*
X65984047Y-55952380D02*
X65650714Y-55476190D01*
X65412619Y-55952380D02*
X65412619Y-54952380D01*
X65793571Y-54952380D01*
X65888809Y-55000000D01*
X65936428Y-55047619D01*
X65984047Y-55142857D01*
X65984047Y-55285714D01*
X65936428Y-55380952D01*
X65888809Y-55428571D01*
X65793571Y-55476190D01*
X65412619Y-55476190D01*
X92750000Y-55428571D02*
X92892857Y-55476190D01*
X92940476Y-55523809D01*
X92988095Y-55619047D01*
X92988095Y-55761904D01*
X92940476Y-55857142D01*
X92892857Y-55904761D01*
X92797619Y-55952380D01*
X92416666Y-55952380D01*
X92416666Y-54952380D01*
X92750000Y-54952380D01*
X92845238Y-55000000D01*
X92892857Y-55047619D01*
X92940476Y-55142857D01*
X92940476Y-55238095D01*
X92892857Y-55333333D01*
X92845238Y-55380952D01*
X92750000Y-55428571D01*
X92416666Y-55428571D01*
X93369047Y-55666666D02*
X93845238Y-55666666D01*
X93273809Y-55952380D02*
X93607142Y-54952380D01*
X93940476Y-55952380D01*
X94130952Y-54952380D02*
X94702380Y-54952380D01*
X94416666Y-55952380D02*
X94416666Y-54952380D01*
X94892857Y-54952380D02*
X95464285Y-54952380D01*
X95178571Y-55952380D02*
X95178571Y-54952380D01*
X95797619Y-55428571D02*
X96130952Y-55428571D01*
X96273809Y-55952380D02*
X95797619Y-55952380D01*
X95797619Y-54952380D01*
X96273809Y-54952380D01*
X97273809Y-55952380D02*
X96940476Y-55476190D01*
X96702380Y-55952380D02*
X96702380Y-54952380D01*
X97083333Y-54952380D01*
X97178571Y-55000000D01*
X97226190Y-55047619D01*
X97273809Y-55142857D01*
X97273809Y-55285714D01*
X97226190Y-55380952D01*
X97178571Y-55428571D01*
X97083333Y-55476190D01*
X96702380Y-55476190D01*
X97892857Y-55476190D02*
X97892857Y-55952380D01*
X97559523Y-54952380D02*
X97892857Y-55476190D01*
X98226190Y-54952380D01*
D11*
X60896428Y-53359857D02*
X59753571Y-53359857D01*
X60896428Y-50819857D02*
X59753571Y-50819857D01*
X60325000Y-50248428D02*
X60325000Y-51391285D01*
X92646428Y-50819857D02*
X91503571Y-50819857D01*
X92075000Y-50248428D02*
X92075000Y-51391285D01*
X92646428Y-53359857D02*
X91503571Y-53359857D01*
D12*
X69738748Y-159710000D02*
X70261252Y-159710000D01*
X69738748Y-158290000D02*
X70261252Y-158290000D01*
X70261252Y-156290000D02*
X69738748Y-156290000D01*
X70261252Y-157710000D02*
X69738748Y-157710000D01*
X69738748Y-153710000D02*
X70261252Y-153710000D01*
X69738748Y-152290000D02*
X70261252Y-152290000D01*
X88261252Y-156290000D02*
X87738748Y-156290000D01*
X88261252Y-157710000D02*
X87738748Y-157710000D01*
X70261252Y-154290000D02*
X69738748Y-154290000D01*
X70261252Y-155710000D02*
X69738748Y-155710000D01*
X88261252Y-154290000D02*
X87738748Y-154290000D01*
X88261252Y-155710000D02*
X87738748Y-155710000D01*
D10*
X109800000Y-53000000D02*
X109800000Y-50700000D01*
X109800000Y-59300000D02*
X109800000Y-57100000D01*
X105200000Y-59300000D02*
X105200000Y-50700000D01*
D12*
X69763748Y-151710000D02*
X70286252Y-151710000D01*
X69763748Y-150290000D02*
X70286252Y-150290000D01*
X59730000Y-153270000D02*
X59095000Y-153270000D01*
X59095000Y-153270000D02*
X59095000Y-152635000D01*
X74670000Y-144050000D02*
X74670000Y-141950000D01*
X69330000Y-144050000D02*
X69330000Y-141950000D01*
X82670000Y-144050000D02*
X82670000Y-141950000D01*
X77330000Y-144050000D02*
X77330000Y-141950000D01*
X90670000Y-144050000D02*
X90670000Y-141950000D01*
X85330000Y-144050000D02*
X85330000Y-141950000D01*
X88261252Y-152290000D02*
X87738748Y-152290000D01*
X88261252Y-153710000D02*
X87738748Y-153710000D01*
X88261252Y-150290000D02*
X87738748Y-150290000D01*
X88261252Y-151710000D02*
X87738748Y-151710000D01*
X98525000Y-152360000D02*
G75*
G03X93475000Y-152360000I-2525000J0D01*
G01*
X98525000Y-158760000D02*
G75*
G02X93475000Y-158760000I-2525000J0D01*
G01*
X98525000Y-158760000D02*
X98525000Y-152360000D01*
X93475000Y-158760000D02*
X93475000Y-152360000D01*
X102475000Y-143000000D02*
X102475000Y-141500000D01*
X101225000Y-139000000D02*
X96725000Y-139000000D01*
X95475000Y-141500000D02*
X95475000Y-143000000D01*
X96725000Y-145500000D02*
X101225000Y-145500000D01*
X64525000Y-143000000D02*
X64525000Y-141500000D01*
X63275000Y-139000000D02*
X58775000Y-139000000D01*
X57525000Y-141500000D02*
X57525000Y-143000000D01*
X58775000Y-145500000D02*
X63275000Y-145500000D01*
X102475000Y-128000000D02*
X102475000Y-126500000D01*
X101225000Y-124000000D02*
X96725000Y-124000000D01*
X95475000Y-126500000D02*
X95475000Y-128000000D01*
X96725000Y-130500000D02*
X101225000Y-130500000D01*
X64525000Y-128000000D02*
X64525000Y-126500000D01*
X63275000Y-124000000D02*
X58775000Y-124000000D01*
X57525000Y-126500000D02*
X57525000Y-128000000D01*
X58775000Y-130500000D02*
X63275000Y-130500000D01*
X86150000Y-136150000D02*
X81750000Y-136150000D01*
X73850000Y-123850000D02*
X78250000Y-123850000D01*
D10*
X80000000Y-125500000D02*
X80000000Y-134600000D01*
G36*
X78000000Y-131500000D02*
G01*
X82000000Y-131500000D01*
X82000000Y-131750000D01*
X78000000Y-131750000D01*
X78000000Y-131500000D01*
G37*
X78000000Y-131500000D02*
X82000000Y-131500000D01*
X82000000Y-131750000D01*
X78000000Y-131750000D01*
X78000000Y-131500000D01*
G36*
X78000000Y-128250000D02*
G01*
X82000000Y-128250000D01*
X80000000Y-131250000D01*
X78000000Y-128250000D01*
G37*
X78000000Y-128250000D02*
X82000000Y-128250000D01*
X80000000Y-131250000D01*
X78000000Y-128250000D01*
D12*
X73850000Y-131000000D02*
X73850000Y-129000000D01*
X73850000Y-136150000D02*
X73850000Y-134000000D01*
X78250000Y-136150000D02*
X73850000Y-136150000D01*
X86150000Y-134000000D02*
X86150000Y-136150000D01*
X86150000Y-129000000D02*
X86150000Y-131000000D01*
X86150000Y-123850000D02*
X86150000Y-126000000D01*
X81750000Y-123850000D02*
X86150000Y-123850000D01*
X73850000Y-126000000D02*
X73850000Y-123850000D01*
X84679050Y-130040000D02*
G75*
G03X84679050Y-130040000I-4579050J0D01*
G01*
X106150000Y-116150000D02*
X101750000Y-116150000D01*
X93850000Y-103850000D02*
X98250000Y-103850000D01*
D10*
X100000000Y-105500000D02*
X100000000Y-114600000D01*
G36*
X98000000Y-111500000D02*
G01*
X102000000Y-111500000D01*
X102000000Y-111750000D01*
X98000000Y-111750000D01*
X98000000Y-111500000D01*
G37*
X98000000Y-111500000D02*
X102000000Y-111500000D01*
X102000000Y-111750000D01*
X98000000Y-111750000D01*
X98000000Y-111500000D01*
G36*
X98000000Y-108250000D02*
G01*
X102000000Y-108250000D01*
X100000000Y-111250000D01*
X98000000Y-108250000D01*
G37*
X98000000Y-108250000D02*
X102000000Y-108250000D01*
X100000000Y-111250000D01*
X98000000Y-108250000D01*
D12*
X93850000Y-111000000D02*
X93850000Y-109000000D01*
X93850000Y-116150000D02*
X93850000Y-114000000D01*
X98250000Y-116150000D02*
X93850000Y-116150000D01*
X106150000Y-114000000D02*
X106150000Y-116150000D01*
X106150000Y-109000000D02*
X106150000Y-111000000D01*
X106150000Y-103850000D02*
X106150000Y-106000000D01*
X101750000Y-103850000D02*
X106150000Y-103850000D01*
X93850000Y-106000000D02*
X93850000Y-103850000D01*
X104679050Y-110040000D02*
G75*
G03X104679050Y-110040000I-4579050J0D01*
G01*
X86150000Y-116150000D02*
X81750000Y-116150000D01*
X73850000Y-103850000D02*
X78250000Y-103850000D01*
D10*
X80000000Y-105500000D02*
X80000000Y-114600000D01*
G36*
X78000000Y-111500000D02*
G01*
X82000000Y-111500000D01*
X82000000Y-111750000D01*
X78000000Y-111750000D01*
X78000000Y-111500000D01*
G37*
X78000000Y-111500000D02*
X82000000Y-111500000D01*
X82000000Y-111750000D01*
X78000000Y-111750000D01*
X78000000Y-111500000D01*
G36*
X78000000Y-108250000D02*
G01*
X82000000Y-108250000D01*
X80000000Y-111250000D01*
X78000000Y-108250000D01*
G37*
X78000000Y-108250000D02*
X82000000Y-108250000D01*
X80000000Y-111250000D01*
X78000000Y-108250000D01*
D12*
X73850000Y-111000000D02*
X73850000Y-109000000D01*
X73850000Y-116150000D02*
X73850000Y-114000000D01*
X78250000Y-116150000D02*
X73850000Y-116150000D01*
X86150000Y-114000000D02*
X86150000Y-116150000D01*
X86150000Y-109000000D02*
X86150000Y-111000000D01*
X86150000Y-103850000D02*
X86150000Y-106000000D01*
X81750000Y-103850000D02*
X86150000Y-103850000D01*
X73850000Y-106000000D02*
X73850000Y-103850000D01*
X84679050Y-110040000D02*
G75*
G03X84679050Y-110040000I-4579050J0D01*
G01*
X66150000Y-116150000D02*
X61750000Y-116150000D01*
X53850000Y-103850000D02*
X58250000Y-103850000D01*
D10*
X60000000Y-105500000D02*
X60000000Y-114600000D01*
G36*
X58000000Y-111500000D02*
G01*
X62000000Y-111500000D01*
X62000000Y-111750000D01*
X58000000Y-111750000D01*
X58000000Y-111500000D01*
G37*
X58000000Y-111500000D02*
X62000000Y-111500000D01*
X62000000Y-111750000D01*
X58000000Y-111750000D01*
X58000000Y-111500000D01*
G36*
X58000000Y-108250000D02*
G01*
X62000000Y-108250000D01*
X60000000Y-111250000D01*
X58000000Y-108250000D01*
G37*
X58000000Y-108250000D02*
X62000000Y-108250000D01*
X60000000Y-111250000D01*
X58000000Y-108250000D01*
D12*
X53850000Y-111000000D02*
X53850000Y-109000000D01*
X53850000Y-116150000D02*
X53850000Y-114000000D01*
X58250000Y-116150000D02*
X53850000Y-116150000D01*
X66150000Y-114000000D02*
X66150000Y-116150000D01*
X66150000Y-109000000D02*
X66150000Y-111000000D01*
X66150000Y-103850000D02*
X66150000Y-106000000D01*
X61750000Y-103850000D02*
X66150000Y-103850000D01*
X53850000Y-106000000D02*
X53850000Y-103850000D01*
X64679050Y-110040000D02*
G75*
G03X64679050Y-110040000I-4579050J0D01*
G01*
X106150000Y-96150000D02*
X101750000Y-96150000D01*
X93850000Y-83850000D02*
X98250000Y-83850000D01*
D10*
X100000000Y-85500000D02*
X100000000Y-94600000D01*
G36*
X98000000Y-91500000D02*
G01*
X102000000Y-91500000D01*
X102000000Y-91750000D01*
X98000000Y-91750000D01*
X98000000Y-91500000D01*
G37*
X98000000Y-91500000D02*
X102000000Y-91500000D01*
X102000000Y-91750000D01*
X98000000Y-91750000D01*
X98000000Y-91500000D01*
G36*
X98000000Y-88250000D02*
G01*
X102000000Y-88250000D01*
X100000000Y-91250000D01*
X98000000Y-88250000D01*
G37*
X98000000Y-88250000D02*
X102000000Y-88250000D01*
X100000000Y-91250000D01*
X98000000Y-88250000D01*
D12*
X93850000Y-91000000D02*
X93850000Y-89000000D01*
X93850000Y-96150000D02*
X93850000Y-94000000D01*
X98250000Y-96150000D02*
X93850000Y-96150000D01*
X106150000Y-94000000D02*
X106150000Y-96150000D01*
X106150000Y-89000000D02*
X106150000Y-91000000D01*
X106150000Y-83850000D02*
X106150000Y-86000000D01*
X101750000Y-83850000D02*
X106150000Y-83850000D01*
X93850000Y-86000000D02*
X93850000Y-83850000D01*
X104679050Y-90040000D02*
G75*
G03X104679050Y-90040000I-4579050J0D01*
G01*
X86150000Y-96150000D02*
X81750000Y-96150000D01*
X73850000Y-83850000D02*
X78250000Y-83850000D01*
D10*
X80000000Y-85500000D02*
X80000000Y-94600000D01*
G36*
X78000000Y-91500000D02*
G01*
X82000000Y-91500000D01*
X82000000Y-91750000D01*
X78000000Y-91750000D01*
X78000000Y-91500000D01*
G37*
X78000000Y-91500000D02*
X82000000Y-91500000D01*
X82000000Y-91750000D01*
X78000000Y-91750000D01*
X78000000Y-91500000D01*
G36*
X78000000Y-88250000D02*
G01*
X82000000Y-88250000D01*
X80000000Y-91250000D01*
X78000000Y-88250000D01*
G37*
X78000000Y-88250000D02*
X82000000Y-88250000D01*
X80000000Y-91250000D01*
X78000000Y-88250000D01*
D12*
X73850000Y-91000000D02*
X73850000Y-89000000D01*
X73850000Y-96150000D02*
X73850000Y-94000000D01*
X78250000Y-96150000D02*
X73850000Y-96150000D01*
X86150000Y-94000000D02*
X86150000Y-96150000D01*
X86150000Y-89000000D02*
X86150000Y-91000000D01*
X86150000Y-83850000D02*
X86150000Y-86000000D01*
X81750000Y-83850000D02*
X86150000Y-83850000D01*
X73850000Y-86000000D02*
X73850000Y-83850000D01*
X84679050Y-90040000D02*
G75*
G03X84679050Y-90040000I-4579050J0D01*
G01*
X66150000Y-96150000D02*
X61750000Y-96150000D01*
X53850000Y-83850000D02*
X58250000Y-83850000D01*
D10*
X60000000Y-85500000D02*
X60000000Y-94600000D01*
G36*
X58000000Y-91500000D02*
G01*
X62000000Y-91500000D01*
X62000000Y-91750000D01*
X58000000Y-91750000D01*
X58000000Y-91500000D01*
G37*
X58000000Y-91500000D02*
X62000000Y-91500000D01*
X62000000Y-91750000D01*
X58000000Y-91750000D01*
X58000000Y-91500000D01*
G36*
X58000000Y-88250000D02*
G01*
X62000000Y-88250000D01*
X60000000Y-91250000D01*
X58000000Y-88250000D01*
G37*
X58000000Y-88250000D02*
X62000000Y-88250000D01*
X60000000Y-91250000D01*
X58000000Y-88250000D01*
D12*
X53850000Y-91000000D02*
X53850000Y-89000000D01*
X53850000Y-96150000D02*
X53850000Y-94000000D01*
X58250000Y-96150000D02*
X53850000Y-96150000D01*
X66150000Y-94000000D02*
X66150000Y-96150000D01*
X66150000Y-89000000D02*
X66150000Y-91000000D01*
X66150000Y-83850000D02*
X66150000Y-86000000D01*
X61750000Y-83850000D02*
X66150000Y-83850000D01*
X53850000Y-86000000D02*
X53850000Y-83850000D01*
X64679050Y-90040000D02*
G75*
G03X64679050Y-90040000I-4579050J0D01*
G01*
D10*
X82625000Y-158400000D02*
X84050000Y-158400000D01*
X75375000Y-158625000D02*
X75700000Y-158625000D01*
X75375000Y-151375000D02*
X75700000Y-151375000D01*
X82625000Y-151375000D02*
X82300000Y-151375000D01*
X82625000Y-158625000D02*
X82300000Y-158625000D01*
X82625000Y-151375000D02*
X82625000Y-151700000D01*
X75375000Y-151375000D02*
X75375000Y-151700000D01*
X75375000Y-158625000D02*
X75375000Y-158300000D01*
X82625000Y-158625000D02*
X82625000Y-158400000D01*
D12*
X106150000Y-76150000D02*
X101750000Y-76150000D01*
X93850000Y-63850000D02*
X98250000Y-63850000D01*
D10*
X100000000Y-65500000D02*
X100000000Y-74600000D01*
G36*
X98000000Y-71500000D02*
G01*
X102000000Y-71500000D01*
X102000000Y-71750000D01*
X98000000Y-71750000D01*
X98000000Y-71500000D01*
G37*
X98000000Y-71500000D02*
X102000000Y-71500000D01*
X102000000Y-71750000D01*
X98000000Y-71750000D01*
X98000000Y-71500000D01*
G36*
X98000000Y-68250000D02*
G01*
X102000000Y-68250000D01*
X100000000Y-71250000D01*
X98000000Y-68250000D01*
G37*
X98000000Y-68250000D02*
X102000000Y-68250000D01*
X100000000Y-71250000D01*
X98000000Y-68250000D01*
D12*
X93850000Y-71000000D02*
X93850000Y-69000000D01*
X93850000Y-76150000D02*
X93850000Y-74000000D01*
X98250000Y-76150000D02*
X93850000Y-76150000D01*
X106150000Y-74000000D02*
X106150000Y-76150000D01*
X106150000Y-69000000D02*
X106150000Y-71000000D01*
X106150000Y-63850000D02*
X106150000Y-66000000D01*
X101750000Y-63850000D02*
X106150000Y-63850000D01*
X93850000Y-66000000D02*
X93850000Y-63850000D01*
X104679050Y-70040000D02*
G75*
G03X104679050Y-70040000I-4579050J0D01*
G01*
X86150000Y-76150000D02*
X81750000Y-76150000D01*
X73850000Y-63850000D02*
X78250000Y-63850000D01*
D10*
X80000000Y-65500000D02*
X80000000Y-74600000D01*
G36*
X78000000Y-71500000D02*
G01*
X82000000Y-71500000D01*
X82000000Y-71750000D01*
X78000000Y-71750000D01*
X78000000Y-71500000D01*
G37*
X78000000Y-71500000D02*
X82000000Y-71500000D01*
X82000000Y-71750000D01*
X78000000Y-71750000D01*
X78000000Y-71500000D01*
G36*
X78000000Y-68250000D02*
G01*
X82000000Y-68250000D01*
X80000000Y-71250000D01*
X78000000Y-68250000D01*
G37*
X78000000Y-68250000D02*
X82000000Y-68250000D01*
X80000000Y-71250000D01*
X78000000Y-68250000D01*
D12*
X73850000Y-71000000D02*
X73850000Y-69000000D01*
X73850000Y-76150000D02*
X73850000Y-74000000D01*
X78250000Y-76150000D02*
X73850000Y-76150000D01*
X86150000Y-74000000D02*
X86150000Y-76150000D01*
X86150000Y-69000000D02*
X86150000Y-71000000D01*
X86150000Y-63850000D02*
X86150000Y-66000000D01*
X81750000Y-63850000D02*
X86150000Y-63850000D01*
X73850000Y-66000000D02*
X73850000Y-63850000D01*
X84679050Y-70040000D02*
G75*
G03X84679050Y-70040000I-4579050J0D01*
G01*
X66150000Y-76150000D02*
X61750000Y-76150000D01*
X53850000Y-63850000D02*
X58250000Y-63850000D01*
D10*
X60000000Y-65500000D02*
X60000000Y-74600000D01*
G36*
X58000000Y-71500000D02*
G01*
X62000000Y-71500000D01*
X62000000Y-71750000D01*
X58000000Y-71750000D01*
X58000000Y-71500000D01*
G37*
X58000000Y-71500000D02*
X62000000Y-71500000D01*
X62000000Y-71750000D01*
X58000000Y-71750000D01*
X58000000Y-71500000D01*
G36*
X58000000Y-68250000D02*
G01*
X62000000Y-68250000D01*
X60000000Y-71250000D01*
X58000000Y-68250000D01*
G37*
X58000000Y-68250000D02*
X62000000Y-68250000D01*
X60000000Y-71250000D01*
X58000000Y-68250000D01*
D12*
X53850000Y-71000000D02*
X53850000Y-69000000D01*
X53850000Y-76150000D02*
X53850000Y-74000000D01*
X58250000Y-76150000D02*
X53850000Y-76150000D01*
X66150000Y-74000000D02*
X66150000Y-76150000D01*
X66150000Y-69000000D02*
X66150000Y-71000000D01*
X66150000Y-63850000D02*
X66150000Y-66000000D01*
X61750000Y-63850000D02*
X66150000Y-63850000D01*
X53850000Y-66000000D02*
X53850000Y-63850000D01*
X64679050Y-70040000D02*
G75*
G03X64679050Y-70040000I-4579050J0D01*
G01*
X86150000Y-56150000D02*
X81750000Y-56150000D01*
X73850000Y-43850000D02*
X78250000Y-43850000D01*
D10*
X80000000Y-45500000D02*
X80000000Y-54600000D01*
G36*
X78000000Y-51500000D02*
G01*
X82000000Y-51500000D01*
X82000000Y-51750000D01*
X78000000Y-51750000D01*
X78000000Y-51500000D01*
G37*
X78000000Y-51500000D02*
X82000000Y-51500000D01*
X82000000Y-51750000D01*
X78000000Y-51750000D01*
X78000000Y-51500000D01*
G36*
X78000000Y-48250000D02*
G01*
X82000000Y-48250000D01*
X80000000Y-51250000D01*
X78000000Y-48250000D01*
G37*
X78000000Y-48250000D02*
X82000000Y-48250000D01*
X80000000Y-51250000D01*
X78000000Y-48250000D01*
D12*
X73850000Y-51000000D02*
X73850000Y-49000000D01*
X73850000Y-56150000D02*
X73850000Y-54000000D01*
X78250000Y-56150000D02*
X73850000Y-56150000D01*
X86150000Y-54000000D02*
X86150000Y-56150000D01*
X86150000Y-49000000D02*
X86150000Y-51000000D01*
X86150000Y-43850000D02*
X86150000Y-46000000D01*
X81750000Y-43850000D02*
X86150000Y-43850000D01*
X73850000Y-46000000D02*
X73850000Y-43850000D01*
X84679050Y-50040000D02*
G75*
G03X84679050Y-50040000I-4579050J0D01*
G01*
D10*
X66833333Y-159452380D02*
X66500000Y-158976190D01*
X66261904Y-159452380D02*
X66261904Y-158452380D01*
X66642857Y-158452380D01*
X66738095Y-158500000D01*
X66785714Y-158547619D01*
X66833333Y-158642857D01*
X66833333Y-158785714D01*
X66785714Y-158880952D01*
X66738095Y-158928571D01*
X66642857Y-158976190D01*
X66261904Y-158976190D01*
X67166666Y-158452380D02*
X67785714Y-158452380D01*
X67452380Y-158833333D01*
X67595238Y-158833333D01*
X67690476Y-158880952D01*
X67738095Y-158928571D01*
X67785714Y-159023809D01*
X67785714Y-159261904D01*
X67738095Y-159357142D01*
X67690476Y-159404761D01*
X67595238Y-159452380D01*
X67309523Y-159452380D01*
X67214285Y-159404761D01*
X67166666Y-159357142D01*
X66833333Y-157452380D02*
X66500000Y-156976190D01*
X66261904Y-157452380D02*
X66261904Y-156452380D01*
X66642857Y-156452380D01*
X66738095Y-156500000D01*
X66785714Y-156547619D01*
X66833333Y-156642857D01*
X66833333Y-156785714D01*
X66785714Y-156880952D01*
X66738095Y-156928571D01*
X66642857Y-156976190D01*
X66261904Y-156976190D01*
X67214285Y-156547619D02*
X67261904Y-156500000D01*
X67357142Y-156452380D01*
X67595238Y-156452380D01*
X67690476Y-156500000D01*
X67738095Y-156547619D01*
X67785714Y-156642857D01*
X67785714Y-156738095D01*
X67738095Y-156880952D01*
X67166666Y-157452380D01*
X67785714Y-157452380D01*
X66833333Y-153357142D02*
X66785714Y-153404761D01*
X66642857Y-153452380D01*
X66547619Y-153452380D01*
X66404761Y-153404761D01*
X66309523Y-153309523D01*
X66261904Y-153214285D01*
X66214285Y-153023809D01*
X66214285Y-152880952D01*
X66261904Y-152690476D01*
X66309523Y-152595238D01*
X66404761Y-152500000D01*
X66547619Y-152452380D01*
X66642857Y-152452380D01*
X66785714Y-152500000D01*
X66833333Y-152547619D01*
X67738095Y-152452380D02*
X67261904Y-152452380D01*
X67214285Y-152928571D01*
X67261904Y-152880952D01*
X67357142Y-152833333D01*
X67595238Y-152833333D01*
X67690476Y-152880952D01*
X67738095Y-152928571D01*
X67785714Y-153023809D01*
X67785714Y-153261904D01*
X67738095Y-153357142D01*
X67690476Y-153404761D01*
X67595238Y-153452380D01*
X67357142Y-153452380D01*
X67261904Y-153404761D01*
X67214285Y-153357142D01*
X90833333Y-157357142D02*
X90785714Y-157404761D01*
X90642857Y-157452380D01*
X90547619Y-157452380D01*
X90404761Y-157404761D01*
X90309523Y-157309523D01*
X90261904Y-157214285D01*
X90214285Y-157023809D01*
X90214285Y-156880952D01*
X90261904Y-156690476D01*
X90309523Y-156595238D01*
X90404761Y-156500000D01*
X90547619Y-156452380D01*
X90642857Y-156452380D01*
X90785714Y-156500000D01*
X90833333Y-156547619D01*
X91166666Y-156452380D02*
X91785714Y-156452380D01*
X91452380Y-156833333D01*
X91595238Y-156833333D01*
X91690476Y-156880952D01*
X91738095Y-156928571D01*
X91785714Y-157023809D01*
X91785714Y-157261904D01*
X91738095Y-157357142D01*
X91690476Y-157404761D01*
X91595238Y-157452380D01*
X91309523Y-157452380D01*
X91214285Y-157404761D01*
X91166666Y-157357142D01*
X66833333Y-155357142D02*
X66785714Y-155404761D01*
X66642857Y-155452380D01*
X66547619Y-155452380D01*
X66404761Y-155404761D01*
X66309523Y-155309523D01*
X66261904Y-155214285D01*
X66214285Y-155023809D01*
X66214285Y-154880952D01*
X66261904Y-154690476D01*
X66309523Y-154595238D01*
X66404761Y-154500000D01*
X66547619Y-154452380D01*
X66642857Y-154452380D01*
X66785714Y-154500000D01*
X66833333Y-154547619D01*
X67690476Y-154785714D02*
X67690476Y-155452380D01*
X67452380Y-154404761D02*
X67214285Y-155119047D01*
X67833333Y-155119047D01*
X90833333Y-155357142D02*
X90785714Y-155404761D01*
X90642857Y-155452380D01*
X90547619Y-155452380D01*
X90404761Y-155404761D01*
X90309523Y-155309523D01*
X90261904Y-155214285D01*
X90214285Y-155023809D01*
X90214285Y-154880952D01*
X90261904Y-154690476D01*
X90309523Y-154595238D01*
X90404761Y-154500000D01*
X90547619Y-154452380D01*
X90642857Y-154452380D01*
X90785714Y-154500000D01*
X90833333Y-154547619D01*
X91690476Y-154452380D02*
X91500000Y-154452380D01*
X91404761Y-154500000D01*
X91357142Y-154547619D01*
X91261904Y-154690476D01*
X91214285Y-154880952D01*
X91214285Y-155261904D01*
X91261904Y-155357142D01*
X91309523Y-155404761D01*
X91404761Y-155452380D01*
X91595238Y-155452380D01*
X91690476Y-155404761D01*
X91738095Y-155357142D01*
X91785714Y-155261904D01*
X91785714Y-155023809D01*
X91738095Y-154928571D01*
X91690476Y-154880952D01*
X91595238Y-154833333D01*
X91404761Y-154833333D01*
X91309523Y-154880952D01*
X91261904Y-154928571D01*
X91214285Y-155023809D01*
X104190476Y-62452380D02*
X104190476Y-61452380D01*
X104571428Y-61452380D01*
X104666666Y-61500000D01*
X104714285Y-61547619D01*
X104761904Y-61642857D01*
X104761904Y-61785714D01*
X104714285Y-61880952D01*
X104666666Y-61928571D01*
X104571428Y-61976190D01*
X104190476Y-61976190D01*
X105380952Y-61452380D02*
X105571428Y-61452380D01*
X105666666Y-61500000D01*
X105761904Y-61595238D01*
X105809523Y-61785714D01*
X105809523Y-62119047D01*
X105761904Y-62309523D01*
X105666666Y-62404761D01*
X105571428Y-62452380D01*
X105380952Y-62452380D01*
X105285714Y-62404761D01*
X105190476Y-62309523D01*
X105142857Y-62119047D01*
X105142857Y-61785714D01*
X105190476Y-61595238D01*
X105285714Y-61500000D01*
X105380952Y-61452380D01*
X106142857Y-61452380D02*
X106380952Y-62452380D01*
X106571428Y-61738095D01*
X106761904Y-62452380D01*
X107000000Y-61452380D01*
X107380952Y-61928571D02*
X107714285Y-61928571D01*
X107857142Y-62452380D02*
X107380952Y-62452380D01*
X107380952Y-61452380D01*
X107857142Y-61452380D01*
X108857142Y-62452380D02*
X108523809Y-61976190D01*
X108285714Y-62452380D02*
X108285714Y-61452380D01*
X108666666Y-61452380D01*
X108761904Y-61500000D01*
X108809523Y-61547619D01*
X108857142Y-61642857D01*
X108857142Y-61785714D01*
X108809523Y-61880952D01*
X108761904Y-61928571D01*
X108666666Y-61976190D01*
X108285714Y-61976190D01*
X66833333Y-151452380D02*
X66500000Y-150976190D01*
X66261904Y-151452380D02*
X66261904Y-150452380D01*
X66642857Y-150452380D01*
X66738095Y-150500000D01*
X66785714Y-150547619D01*
X66833333Y-150642857D01*
X66833333Y-150785714D01*
X66785714Y-150880952D01*
X66738095Y-150928571D01*
X66642857Y-150976190D01*
X66261904Y-150976190D01*
X67785714Y-151452380D02*
X67214285Y-151452380D01*
X67500000Y-151452380D02*
X67500000Y-150452380D01*
X67404761Y-150595238D01*
X67309523Y-150690476D01*
X67214285Y-150738095D01*
X90833333Y-153357142D02*
X90785714Y-153404761D01*
X90642857Y-153452380D01*
X90547619Y-153452380D01*
X90404761Y-153404761D01*
X90309523Y-153309523D01*
X90261904Y-153214285D01*
X90214285Y-153023809D01*
X90214285Y-152880952D01*
X90261904Y-152690476D01*
X90309523Y-152595238D01*
X90404761Y-152500000D01*
X90547619Y-152452380D01*
X90642857Y-152452380D01*
X90785714Y-152500000D01*
X90833333Y-152547619D01*
X91785714Y-153452380D02*
X91214285Y-153452380D01*
X91500000Y-153452380D02*
X91500000Y-152452380D01*
X91404761Y-152595238D01*
X91309523Y-152690476D01*
X91214285Y-152738095D01*
X90833333Y-151357142D02*
X90785714Y-151404761D01*
X90642857Y-151452380D01*
X90547619Y-151452380D01*
X90404761Y-151404761D01*
X90309523Y-151309523D01*
X90261904Y-151214285D01*
X90214285Y-151023809D01*
X90214285Y-150880952D01*
X90261904Y-150690476D01*
X90309523Y-150595238D01*
X90404761Y-150500000D01*
X90547619Y-150452380D01*
X90642857Y-150452380D01*
X90785714Y-150500000D01*
X90833333Y-150547619D01*
X91214285Y-150547619D02*
X91261904Y-150500000D01*
X91357142Y-150452380D01*
X91595238Y-150452380D01*
X91690476Y-150500000D01*
X91738095Y-150547619D01*
X91785714Y-150642857D01*
X91785714Y-150738095D01*
X91738095Y-150880952D01*
X91166666Y-151452380D01*
X91785714Y-151452380D01*
X95879761Y-147057142D02*
X95832142Y-147104761D01*
X95689285Y-147152380D01*
X95594047Y-147152380D01*
X95451190Y-147104761D01*
X95355952Y-147009523D01*
X95308333Y-146914285D01*
X95260714Y-146723809D01*
X95260714Y-146580952D01*
X95308333Y-146390476D01*
X95355952Y-146295238D01*
X95451190Y-146200000D01*
X95594047Y-146152380D01*
X95689285Y-146152380D01*
X95832142Y-146200000D01*
X95879761Y-146247619D01*
X96498809Y-146152380D02*
X96689285Y-146152380D01*
X96784523Y-146200000D01*
X96879761Y-146295238D01*
X96927380Y-146485714D01*
X96927380Y-146819047D01*
X96879761Y-147009523D01*
X96784523Y-147104761D01*
X96689285Y-147152380D01*
X96498809Y-147152380D01*
X96403571Y-147104761D01*
X96308333Y-147009523D01*
X96260714Y-146819047D01*
X96260714Y-146485714D01*
X96308333Y-146295238D01*
X96403571Y-146200000D01*
X96498809Y-146152380D01*
X97355952Y-147152380D02*
X97355952Y-146152380D01*
X97689285Y-146866666D01*
X98022619Y-146152380D01*
X98022619Y-147152380D01*
X98498809Y-147152380D02*
X98498809Y-146152380D01*
X98879761Y-146152380D01*
X98975000Y-146200000D01*
X99022619Y-146247619D01*
X99070238Y-146342857D01*
X99070238Y-146485714D01*
X99022619Y-146580952D01*
X98975000Y-146628571D01*
X98879761Y-146676190D01*
X98498809Y-146676190D01*
X100117857Y-146152380D02*
X100689285Y-146152380D01*
X100403571Y-147152380D02*
X100403571Y-146152380D01*
X101022619Y-146152380D02*
X101022619Y-146961904D01*
X101070238Y-147057142D01*
X101117857Y-147104761D01*
X101213095Y-147152380D01*
X101403571Y-147152380D01*
X101498809Y-147104761D01*
X101546428Y-147057142D01*
X101594047Y-146961904D01*
X101594047Y-146152380D01*
X102641666Y-147152380D02*
X102308333Y-146676190D01*
X102070238Y-147152380D02*
X102070238Y-146152380D01*
X102451190Y-146152380D01*
X102546428Y-146200000D01*
X102594047Y-146247619D01*
X102641666Y-146342857D01*
X102641666Y-146485714D01*
X102594047Y-146580952D01*
X102546428Y-146628571D01*
X102451190Y-146676190D01*
X102070238Y-146676190D01*
X103070238Y-147152380D02*
X103070238Y-146152380D01*
X103641666Y-147152380D01*
X103641666Y-146152380D01*
X59215476Y-147152380D02*
X59215476Y-146152380D01*
X59215476Y-146628571D02*
X59786904Y-146628571D01*
X59786904Y-147152380D02*
X59786904Y-146152380D01*
X60263095Y-147152380D02*
X60263095Y-146152380D01*
X60596428Y-146152380D02*
X61167857Y-146152380D01*
X60882142Y-147152380D02*
X60882142Y-146152380D01*
X62263095Y-147152380D02*
X62263095Y-146152380D01*
X62596428Y-146866666D01*
X62929761Y-146152380D01*
X62929761Y-147152380D01*
X63405952Y-146628571D02*
X63739285Y-146628571D01*
X63882142Y-147152380D02*
X63405952Y-147152380D01*
X63405952Y-146152380D01*
X63882142Y-146152380D01*
X95403571Y-132104761D02*
X95546428Y-132152380D01*
X95784523Y-132152380D01*
X95879761Y-132104761D01*
X95927380Y-132057142D01*
X95975000Y-131961904D01*
X95975000Y-131866666D01*
X95927380Y-131771428D01*
X95879761Y-131723809D01*
X95784523Y-131676190D01*
X95594047Y-131628571D01*
X95498809Y-131580952D01*
X95451190Y-131533333D01*
X95403571Y-131438095D01*
X95403571Y-131342857D01*
X95451190Y-131247619D01*
X95498809Y-131200000D01*
X95594047Y-131152380D01*
X95832142Y-131152380D01*
X95975000Y-131200000D01*
X96355952Y-131866666D02*
X96832142Y-131866666D01*
X96260714Y-132152380D02*
X96594047Y-131152380D01*
X96927380Y-132152380D01*
X97260714Y-132152380D02*
X97260714Y-131152380D01*
X97594047Y-131866666D01*
X97927380Y-131152380D01*
X97927380Y-132152380D01*
X98403571Y-131628571D02*
X98736904Y-131628571D01*
X98879761Y-132152380D02*
X98403571Y-132152380D01*
X98403571Y-131152380D01*
X98879761Y-131152380D01*
X100594047Y-131200000D02*
X100498809Y-131152380D01*
X100355952Y-131152380D01*
X100213095Y-131200000D01*
X100117857Y-131295238D01*
X100070238Y-131390476D01*
X100022619Y-131580952D01*
X100022619Y-131723809D01*
X100070238Y-131914285D01*
X100117857Y-132009523D01*
X100213095Y-132104761D01*
X100355952Y-132152380D01*
X100451190Y-132152380D01*
X100594047Y-132104761D01*
X100641666Y-132057142D01*
X100641666Y-131723809D01*
X100451190Y-131723809D01*
X101022619Y-131866666D02*
X101498809Y-131866666D01*
X100927380Y-132152380D02*
X101260714Y-131152380D01*
X101594047Y-132152380D01*
X101927380Y-132152380D02*
X101927380Y-131152380D01*
X102260714Y-131866666D01*
X102594047Y-131152380D01*
X102594047Y-132152380D01*
X103070238Y-131628571D02*
X103403571Y-131628571D01*
X103546428Y-132152380D02*
X103070238Y-132152380D01*
X103070238Y-131152380D01*
X103546428Y-131152380D01*
X57882142Y-132152380D02*
X57882142Y-131152380D01*
X58453571Y-132152380D01*
X58453571Y-131152380D01*
X58929761Y-131628571D02*
X59263095Y-131628571D01*
X59405952Y-132152380D02*
X58929761Y-132152380D01*
X58929761Y-131152380D01*
X59405952Y-131152380D01*
X59739285Y-131152380D02*
X59977380Y-132152380D01*
X60167857Y-131438095D01*
X60358333Y-132152380D01*
X60596428Y-131152380D01*
X62263095Y-131200000D02*
X62167857Y-131152380D01*
X62025000Y-131152380D01*
X61882142Y-131200000D01*
X61786904Y-131295238D01*
X61739285Y-131390476D01*
X61691666Y-131580952D01*
X61691666Y-131723809D01*
X61739285Y-131914285D01*
X61786904Y-132009523D01*
X61882142Y-132104761D01*
X62025000Y-132152380D01*
X62120238Y-132152380D01*
X62263095Y-132104761D01*
X62310714Y-132057142D01*
X62310714Y-131723809D01*
X62120238Y-131723809D01*
X62691666Y-131866666D02*
X63167857Y-131866666D01*
X62596428Y-132152380D02*
X62929761Y-131152380D01*
X63263095Y-132152380D01*
X63596428Y-132152380D02*
X63596428Y-131152380D01*
X63929761Y-131866666D01*
X64263095Y-131152380D01*
X64263095Y-132152380D01*
X64739285Y-131628571D02*
X65072619Y-131628571D01*
X65215476Y-132152380D02*
X64739285Y-132152380D01*
X64739285Y-131152380D01*
X65215476Y-131152380D01*
X73459523Y-138072380D02*
X72888095Y-138072380D01*
X73173809Y-138072380D02*
X73173809Y-137072380D01*
X73078571Y-137215238D01*
X72983333Y-137310476D01*
X72888095Y-137358095D01*
X74078571Y-137072380D02*
X74173809Y-137072380D01*
X74269047Y-137120000D01*
X74316666Y-137167619D01*
X74364285Y-137262857D01*
X74411904Y-137453333D01*
X74411904Y-137691428D01*
X74364285Y-137881904D01*
X74316666Y-137977142D01*
X74269047Y-138024761D01*
X74173809Y-138072380D01*
X74078571Y-138072380D01*
X73983333Y-138024761D01*
X73935714Y-137977142D01*
X73888095Y-137881904D01*
X73840476Y-137691428D01*
X73840476Y-137453333D01*
X73888095Y-137262857D01*
X73935714Y-137167619D01*
X73983333Y-137120000D01*
X74078571Y-137072380D01*
X93459523Y-118072380D02*
X93650000Y-118072380D01*
X93745238Y-118024761D01*
X93792857Y-117977142D01*
X93888095Y-117834285D01*
X93935714Y-117643809D01*
X93935714Y-117262857D01*
X93888095Y-117167619D01*
X93840476Y-117120000D01*
X93745238Y-117072380D01*
X93554761Y-117072380D01*
X93459523Y-117120000D01*
X93411904Y-117167619D01*
X93364285Y-117262857D01*
X93364285Y-117500952D01*
X93411904Y-117596190D01*
X93459523Y-117643809D01*
X93554761Y-117691428D01*
X93745238Y-117691428D01*
X93840476Y-117643809D01*
X93888095Y-117596190D01*
X93935714Y-117500952D01*
X73554761Y-117500952D02*
X73459523Y-117453333D01*
X73411904Y-117405714D01*
X73364285Y-117310476D01*
X73364285Y-117262857D01*
X73411904Y-117167619D01*
X73459523Y-117120000D01*
X73554761Y-117072380D01*
X73745238Y-117072380D01*
X73840476Y-117120000D01*
X73888095Y-117167619D01*
X73935714Y-117262857D01*
X73935714Y-117310476D01*
X73888095Y-117405714D01*
X73840476Y-117453333D01*
X73745238Y-117500952D01*
X73554761Y-117500952D01*
X73459523Y-117548571D01*
X73411904Y-117596190D01*
X73364285Y-117691428D01*
X73364285Y-117881904D01*
X73411904Y-117977142D01*
X73459523Y-118024761D01*
X73554761Y-118072380D01*
X73745238Y-118072380D01*
X73840476Y-118024761D01*
X73888095Y-117977142D01*
X73935714Y-117881904D01*
X73935714Y-117691428D01*
X73888095Y-117596190D01*
X73840476Y-117548571D01*
X73745238Y-117500952D01*
X53316666Y-117072380D02*
X53983333Y-117072380D01*
X53554761Y-118072380D01*
X93840476Y-97072380D02*
X93650000Y-97072380D01*
X93554761Y-97120000D01*
X93507142Y-97167619D01*
X93411904Y-97310476D01*
X93364285Y-97500952D01*
X93364285Y-97881904D01*
X93411904Y-97977142D01*
X93459523Y-98024761D01*
X93554761Y-98072380D01*
X93745238Y-98072380D01*
X93840476Y-98024761D01*
X93888095Y-97977142D01*
X93935714Y-97881904D01*
X93935714Y-97643809D01*
X93888095Y-97548571D01*
X93840476Y-97500952D01*
X93745238Y-97453333D01*
X93554761Y-97453333D01*
X93459523Y-97500952D01*
X93411904Y-97548571D01*
X93364285Y-97643809D01*
X73888095Y-97072380D02*
X73411904Y-97072380D01*
X73364285Y-97548571D01*
X73411904Y-97500952D01*
X73507142Y-97453333D01*
X73745238Y-97453333D01*
X73840476Y-97500952D01*
X73888095Y-97548571D01*
X73935714Y-97643809D01*
X73935714Y-97881904D01*
X73888095Y-97977142D01*
X73840476Y-98024761D01*
X73745238Y-98072380D01*
X73507142Y-98072380D01*
X73411904Y-98024761D01*
X73364285Y-97977142D01*
X53840476Y-97215714D02*
X53840476Y-97882380D01*
X53602380Y-96834761D02*
X53364285Y-97549047D01*
X53983333Y-97549047D01*
X93316666Y-77072380D02*
X93935714Y-77072380D01*
X93602380Y-77453333D01*
X93745238Y-77453333D01*
X93840476Y-77500952D01*
X93888095Y-77548571D01*
X93935714Y-77643809D01*
X93935714Y-77881904D01*
X93888095Y-77977142D01*
X93840476Y-78024761D01*
X93745238Y-78072380D01*
X93459523Y-78072380D01*
X93364285Y-78024761D01*
X93316666Y-77977142D01*
X73464285Y-77172619D02*
X73511904Y-77125000D01*
X73607142Y-77077380D01*
X73845238Y-77077380D01*
X73940476Y-77125000D01*
X73988095Y-77172619D01*
X74035714Y-77267857D01*
X74035714Y-77363095D01*
X73988095Y-77505952D01*
X73416666Y-78077380D01*
X74035714Y-78077380D01*
X53935714Y-78072380D02*
X53364285Y-78072380D01*
X53650000Y-78072380D02*
X53650000Y-77072380D01*
X53554761Y-77215238D01*
X53459523Y-77310476D01*
X53364285Y-77358095D01*
X73602380Y-57199380D02*
X73697619Y-57199380D01*
X73792857Y-57247000D01*
X73840476Y-57294619D01*
X73888095Y-57389857D01*
X73935714Y-57580333D01*
X73935714Y-57818428D01*
X73888095Y-58008904D01*
X73840476Y-58104142D01*
X73792857Y-58151761D01*
X73697619Y-58199380D01*
X73602380Y-58199380D01*
X73507142Y-58151761D01*
X73459523Y-58104142D01*
X73411904Y-58008904D01*
X73364285Y-57818428D01*
X73364285Y-57580333D01*
X73411904Y-57389857D01*
X73459523Y-57294619D01*
X73507142Y-57247000D01*
X73602380Y-57199380D01*
M02*
