M48
; DRILL file {KiCad (5.1.4)-1} date 2019-10-22 14:30:29
; FORMAT={-:-/ absolute / inch / decimal}
; #@! TF.CreationDate,2019-10-22T14:30:29-04:00
; #@! TF.GenerationSoftware,Kicad,Pcbnew,(5.1.4)-1
; #@! TF.FileFunction,NonPlated,1,2,NPTH
FMAT,2
INCH
T1C0.0390
T2C0.0709
%
G90
G05
T1
X2.3016Y-5.9843
X2.5016Y-5.9443
X2.5016Y-6.0243
T2
X3.1496Y-2.5787
X3.1496Y-2.9331
X2.3622Y-2.5787
X2.3622Y-2.9331
X2.3622Y-3.3661
X2.3622Y-3.7205
X3.1496Y-3.3661
X3.1496Y-3.7205
X3.1496Y-1.7913
X3.1496Y-2.1457
X3.1496Y-4.1535
X3.1496Y-4.5079
X3.1496Y-4.9409
X3.1496Y-5.2953
X2.3622Y-4.1535
X2.3622Y-4.5079
X3.937Y-4.1535
X3.937Y-4.5079
X3.937Y-2.5787
X3.937Y-2.9331
X3.937Y-3.3661
X3.937Y-3.7205
T0
M30
