M48
; DRILL file {KiCad (5.1.4)-1} date 2019-10-22 14:30:29
; FORMAT={-:-/ absolute / inch / decimal}
; #@! TF.CreationDate,2019-10-22T14:30:29-04:00
; #@! TF.GenerationSoftware,Kicad,Pcbnew,(5.1.4)-1
; #@! TF.FileFunction,Plated,1,2,PTH
FMAT,2
INCH
T1C0.0118
T2C0.0157
T3C0.0276
T4C0.0315
T5C0.0354
T6C0.0394
T7C0.0433
T8C0.0591
T9C0.1063
%
G90
G05
T1
X2.4563Y-6.2603
X2.563Y-6.0526
X2.6496Y-6.3189
X2.7913Y-5.5
X2.8622Y-5.4803
X2.9606Y-5.4528
X3.0591Y-6.2175
X3.122Y-5.5118
X3.1496Y-5.4764
X3.1506Y-6.0551
X3.1785Y-6.0003
X3.2047Y-6.0945
X3.2362Y-5.5039
X3.2402Y-5.8425
X3.2628Y-5.8189
X3.2717Y-6.2835
X3.2746Y-5.4724
X3.2864Y-5.5896
X3.4567Y-5.4488
X3.8189Y-5.2362
X3.8189Y-5.315
X4.0364Y-4.4488
T2
X2.5Y-5.8071
X2.5591Y-5.9055
X2.6496Y-6.0748
X2.7362Y-5.8071
X2.7598Y-6.3189
X2.8504Y-5.9488
X2.8583Y-6.122
X2.9291Y-5.881
X2.9882Y-5.7717
X3.0315Y-6.122
X3.3268Y-5.9252
X3.3701Y-6.1142
X3.4242Y-6.2431
X3.563Y-5.9843
X3.563Y-6.1024
X3.563Y-6.1811
T3
X3.1496Y-2.4902
X3.1496Y-3.0217
X2.3622Y-2.4902
X2.3622Y-3.0217
X2.3622Y-3.2776
X2.3622Y-3.8091
X3.1496Y-3.2776
X3.1496Y-3.8091
X3.1496Y-1.7028
X3.1496Y-2.2343
X3.1496Y-4.065
X3.1496Y-4.5965
X3.1496Y-4.8524
X3.1496Y-5.3839
X2.3622Y-4.065
X2.3622Y-4.5965
X3.937Y-4.065
X3.937Y-4.5965
X3.937Y-2.4902
X3.937Y-3.0217
X3.937Y-3.2776
X3.937Y-3.8091
T4
X3.7795Y-6.0283
X3.7795Y-6.2205
T5
X4.2323Y-2.0866
X4.2323Y-2.1654
X4.2323Y-2.2441
T6
X2.4803Y-2.0
X2.4803Y-2.1
X3.75Y-2.0
X3.75Y-2.1
T7
X2.9035Y-2.6575
X2.9035Y-2.8543
X3.3957Y-2.6575
X3.3957Y-2.8543
X2.1161Y-2.6575
X2.1161Y-2.8543
X2.6083Y-2.6575
X2.6083Y-2.8543
X2.2746Y-5.5118
X2.2746Y-5.689
X2.5305Y-5.5118
X2.5305Y-5.689
X2.1161Y-3.4449
X2.1161Y-3.6417
X2.6083Y-3.4449
X2.6083Y-3.6417
X2.9035Y-3.4449
X2.9035Y-3.6417
X3.3957Y-3.4449
X3.3957Y-3.6417
X2.9035Y-1.8701
X2.9035Y-2.0669
X3.3957Y-1.8701
X3.3957Y-2.0669
X2.9035Y-4.2323
X2.9035Y-4.4291
X3.3957Y-4.2323
X3.3957Y-4.4291
X3.7687Y-4.9213
X3.7687Y-5.0984
X4.0246Y-4.9213
X4.0246Y-5.0984
X2.9035Y-5.0197
X2.9035Y-5.2165
X3.3957Y-5.0197
X3.3957Y-5.2165
X2.1161Y-4.2323
X2.1161Y-4.4291
X2.6083Y-4.2323
X2.6083Y-4.4291
X3.6909Y-4.2323
X3.6909Y-4.4291
X4.1831Y-4.2323
X4.1831Y-4.4291
X3.7687Y-5.5118
X3.7687Y-5.689
X4.0246Y-5.5118
X4.0246Y-5.689
X3.6909Y-2.6575
X3.6909Y-2.8543
X4.1831Y-2.6575
X4.1831Y-2.8543
X2.2746Y-4.9213
X2.2746Y-5.0984
X2.5305Y-4.9213
X2.5305Y-5.0984
X3.6909Y-3.4449
X3.6909Y-3.6417
X4.1831Y-3.4449
X4.1831Y-3.6417
T8
X4.2323Y-2.0039
X4.2323Y-2.3268
T9
X2.1654Y-1.7717
X3.5827Y-5.315
X2.1654Y-6.2992
X2.7165Y-5.315
X4.1339Y-6.2992
X4.1339Y-1.7717
T0
M30
