G04 #@! TF.GenerationSoftware,KiCad,Pcbnew,(5.1.4)-1*
G04 #@! TF.CreationDate,2019-10-22T14:30:37-04:00*
G04 #@! TF.ProjectId,MerlinGame,4d65726c-696e-4476-916d-652e6b696361,A*
G04 #@! TF.SameCoordinates,Original*
G04 #@! TF.FileFunction,Soldermask,Bot*
G04 #@! TF.FilePolarity,Negative*
%FSLAX46Y46*%
G04 Gerber Fmt 4.6, Leading zero omitted, Abs format (unit mm)*
G04 Created by KiCad (PCBNEW (5.1.4)-1) date 2019-10-22 14:30:37*
%MOMM*%
%LPD*%
G04 APERTURE LIST*
%ADD10O,1.900000X1.900000*%
%ADD11R,1.900000X1.900000*%
%ADD12C,5.600000*%
%ADD13O,3.700000X2.400000*%
%ADD14O,2.700000X1.700000*%
%ADD15R,2.700000X1.700000*%
%ADD16C,1.190600*%
%ADD17C,1.700000*%
%ADD18C,2.200000*%
%ADD19C,2.000000*%
%ADD20C,1.600000*%
G04 APERTURE END LIST*
D10*
X63000000Y-50800000D03*
D11*
X63000000Y-53340000D03*
D10*
X95250000Y-50800000D03*
D11*
X95250000Y-53340000D03*
D12*
X105000000Y-45000000D03*
X55000000Y-160000000D03*
X69000000Y-135000000D03*
X105000000Y-160000000D03*
X91000000Y-135000000D03*
X55000000Y-45000000D03*
D13*
X107500000Y-50900000D03*
X107500000Y-59100000D03*
D14*
X107500000Y-53000000D03*
X107500000Y-55000000D03*
D15*
X107500000Y-57000000D03*
D16*
X58460000Y-152000000D03*
X63540000Y-153016000D03*
X63540000Y-150984000D03*
D17*
X96000000Y-153120000D03*
X96000000Y-158000000D03*
D18*
X102225000Y-140000000D03*
X102225000Y-144500000D03*
X95725000Y-140000000D03*
X95725000Y-144500000D03*
X64275000Y-140000000D03*
X64275000Y-144500000D03*
X57775000Y-140000000D03*
X57775000Y-144500000D03*
X102225000Y-125000000D03*
X102225000Y-129500000D03*
X95725000Y-125000000D03*
X95725000Y-129500000D03*
X64275000Y-125000000D03*
X64275000Y-129500000D03*
X57775000Y-125000000D03*
X57775000Y-129500000D03*
D19*
X80000000Y-134500000D03*
X80000000Y-125500000D03*
D20*
X80000000Y-136750000D03*
X80000000Y-123250000D03*
D18*
X73750000Y-132500000D03*
X73750000Y-127500000D03*
X86250000Y-132500000D03*
X86250000Y-127500000D03*
D19*
X100000000Y-114500000D03*
X100000000Y-105500000D03*
D20*
X100000000Y-116750000D03*
X100000000Y-103250000D03*
D18*
X93750000Y-112500000D03*
X93750000Y-107500000D03*
X106250000Y-112500000D03*
X106250000Y-107500000D03*
D19*
X80000000Y-114500000D03*
X80000000Y-105500000D03*
D20*
X80000000Y-116750000D03*
X80000000Y-103250000D03*
D18*
X73750000Y-112500000D03*
X73750000Y-107500000D03*
X86250000Y-112500000D03*
X86250000Y-107500000D03*
D19*
X60000000Y-114500000D03*
X60000000Y-105500000D03*
D20*
X60000000Y-116750000D03*
X60000000Y-103250000D03*
D18*
X53750000Y-112500000D03*
X53750000Y-107500000D03*
X66250000Y-112500000D03*
X66250000Y-107500000D03*
D19*
X100000000Y-94500000D03*
X100000000Y-85500000D03*
D20*
X100000000Y-96750000D03*
X100000000Y-83250000D03*
D18*
X93750000Y-92500000D03*
X93750000Y-87500000D03*
X106250000Y-92500000D03*
X106250000Y-87500000D03*
D19*
X80000000Y-94500000D03*
X80000000Y-85500000D03*
D20*
X80000000Y-96750000D03*
X80000000Y-83250000D03*
D18*
X73750000Y-92500000D03*
X73750000Y-87500000D03*
X86250000Y-92500000D03*
X86250000Y-87500000D03*
D19*
X60000000Y-94500000D03*
X60000000Y-85500000D03*
D20*
X60000000Y-96750000D03*
X60000000Y-83250000D03*
D18*
X53750000Y-92500000D03*
X53750000Y-87500000D03*
X66250000Y-92500000D03*
X66250000Y-87500000D03*
D19*
X100000000Y-74500000D03*
X100000000Y-65500000D03*
D20*
X100000000Y-76750000D03*
X100000000Y-63250000D03*
D18*
X93750000Y-72500000D03*
X93750000Y-67500000D03*
X106250000Y-72500000D03*
X106250000Y-67500000D03*
D19*
X80000000Y-74500000D03*
X80000000Y-65500000D03*
D20*
X80000000Y-76750000D03*
X80000000Y-63250000D03*
D18*
X73750000Y-72500000D03*
X73750000Y-67500000D03*
X86250000Y-72500000D03*
X86250000Y-67500000D03*
D19*
X60000000Y-74500000D03*
X60000000Y-65500000D03*
D20*
X60000000Y-76750000D03*
X60000000Y-63250000D03*
D18*
X53750000Y-72500000D03*
X53750000Y-67500000D03*
X66250000Y-72500000D03*
X66250000Y-67500000D03*
D19*
X80000000Y-54500000D03*
X80000000Y-45500000D03*
D20*
X80000000Y-56750000D03*
X80000000Y-43250000D03*
D18*
X73750000Y-52500000D03*
X73750000Y-47500000D03*
X86250000Y-52500000D03*
X86250000Y-47500000D03*
M02*
